#define drag_width 16
#define drag_height 16
static unsigned char drag_bits[] = {
 0xff, 0x01, 0xff, 0x00, 0x7f, 0x00, 0x1f, 0x00, 0x3f, 0x00, 0x77, 0x00,
 0xe7, 0xff, 0xc3, 0xff, 0xc1, 0xff, 0xc0, 0xff, 0xc0, 0xff, 0xc0, 0xff,
 0xc0, 0xff, 0xc0, 0xff, 0xc0, 0xff, 0xc0, 0xff } ;
